<svg width="28" height="28" viewBox="0 0 28 28" fill="none" xmlns="http://www.w3.org/2000/svg">
<path fill-rule="evenodd" clip-rule="evenodd" d="M14 4C8.47715 4 4 8.47715 4 14C4 19.5228 8.47715 24 14 24C19.5228 24 24 19.5228 24 14C24 8.47715 19.5228 4 14 4ZM2 14C2 7.37258 7.37258 2 14 2C20.6274 2 26 7.37258 26 14C26 20.6274 20.6274 26 14 26C7.37258 26 2 20.6274 2 14Z" fill="#233670"/>
<path fill-rule="evenodd" clip-rule="evenodd" d="M14 22C18.4183 22 22 18.4183 22 14C22 9.58172 18.4183 6 14 6C9.58172 6 6 9.58172 6 14C6 18.4183 9.58172 22 14 22ZM12.9998 16.8311V20.0018H14.9998V16.8311C15.8522 16.5298 16.5278 15.8542 16.8291 15.0018H19.9998V13.0018H16.8291C16.5278 12.1494 15.8522 11.4738 14.9998 11.1725V8.00178H12.9998V11.1725C12.1474 11.4738 11.4718 12.1494 11.1705 13.0018H7.99982V15.0018H11.1705C11.4718 15.8542 12.1474 16.5298 12.9998 16.8311ZM13.9998 15.0018C14.5521 15.0018 14.9998 14.5541 14.9998 14.0018C14.9998 13.4495 14.5521 13.0018 13.9998 13.0018C13.4475 13.0018 12.9998 13.4495 12.9998 14.0018C12.9998 14.5541 13.4475 15.0018 13.9998 15.0018Z" fill="#E63D26"/>
</svg>
