<svg width="28" height="28" viewBox="0 0 28 28" fill="none" xmlns="http://www.w3.org/2000/svg">
<path fill-rule="evenodd" clip-rule="evenodd" d="M9 7C9 4.23858 11.2386 2 14 2C16.7614 2 19 4.23858 19 7H16V8.5H17.5H19V10.5H16V12H19C19 14.7614 16.7614 17 14 17C11.2386 17 9 14.7614 9 12H12V10.5H9V8.5H12V7H9Z" fill="#E63D26"/>
<path fill-rule="evenodd" clip-rule="evenodd" d="M13.9993 18.9999C10.2438 18.9999 7.26279 15.816 7.4974 12.0623L5.50129 11.9375C5.21616 16.4997 8.56866 20.4229 12.9994 20.9417V22.9999H10.9994V24.9999H16.9993V22.9999H14.9993V20.9417C19.43 20.4229 22.7825 16.4997 22.4974 11.9375L20.5013 12.0623C20.7359 15.816 17.7549 18.9999 13.9993 18.9999Z" fill="#233670"/>
</svg>
