<svg width="28" height="28" viewBox="0 0 28 28" fill="none" xmlns="http://www.w3.org/2000/svg">
<path fill-rule="evenodd" clip-rule="evenodd" d="M5.45437 17.3738L2 21.5842L4.91692 21.9991L5.71387 24.8092L9.10529 20.6756L7.36843 19.4962C6.55873 18.9464 5.90665 18.2149 5.45437 17.3738ZM18.8953 20.6751L22.2871 24.8092L23.084 21.9991L26.001 21.5842L22.546 17.373C22.0937 18.2145 21.4415 18.9463 20.6316 19.4962L18.8953 20.6751Z" fill="#233670"/>
<path fill-rule="evenodd" clip-rule="evenodd" d="M13.9336 3L5.43359 7.22222L6.60336 14.5241C6.85715 16.1083 7.73484 17.5249 9.04039 18.4574L14 22L18.9214 18.4847C20.2495 17.5361 21.1338 16.0874 21.3705 14.4727L22.4336 7.22222L13.9336 3ZM15.1266 10.8656L13.9338 7.21875L12.7411 10.8656H8.88134L12.004 13.1195L10.8112 16.7663L13.9338 14.5125L17.0564 16.7663L15.8637 13.1195L18.9863 10.8656H15.1266Z" fill="#E63D26"/>
</svg>
