<svg width="29" height="28" viewBox="0 0 29 28" fill="none" xmlns="http://www.w3.org/2000/svg">
<path fill-rule="evenodd" clip-rule="evenodd" d="M21.194 18.4519C19.6893 21.6741 16.4015 23.9091 12.5876 23.9091C7.35152 23.9091 3.10683 19.6965 3.10683 14.5C3.10683 9.30351 7.35152 5.09091 12.5876 5.09091C16.3095 5.09091 19.5305 7.21937 21.0821 10.3167L23.3848 10.3171C21.6989 6.03405 17.5003 3 12.5876 3C6.18794 3 1 8.14873 1 14.5C1 20.8512 6.18794 26 12.5876 26C18.2988 26 23.0451 21.8994 24 16.503L21.194 18.4519Z" fill="#233670"/>
<path fill-rule="evenodd" clip-rule="evenodd" d="M10.756 18.7371L14.8751 17.1534L16.9748 19.8451L28 11.7706L18.0247 11.7693L14.8751 8L8.57631 8.00068L8.60581 8.15221L8.57513 8.00099L7 9.07841L9.62516 22L11.2 20.9232L10.756 18.7371Z" fill="#E63D26"/>
</svg>
