<svg width="28" height="28" viewBox="0 0 28 28" fill="none" xmlns="http://www.w3.org/2000/svg">
<path fill-rule="evenodd" clip-rule="evenodd" d="M12.9064 2.04691C10.6897 2.24671 8.64652 3.04788 6.94113 4.28606L8.46401 5.90431C9.75672 5.02139 11.2711 4.43909 12.9064 4.25802V2.04691ZM15.0932 4.25797V2.04688C17.6459 2.27686 19.9685 3.30437 21.8102 4.87835L20.3003 6.48277C18.8574 5.27622 17.0631 4.47598 15.0932 4.25797ZM23.7674 12.9319C23.5661 11.114 22.869 9.44557 21.8143 8.06493L23.3387 6.44512C24.8042 8.24843 25.7579 10.4845 25.9785 12.9319H23.7674ZM21.7699 20.0436C22.8495 18.6518 23.5634 16.9621 23.7674 15.1187H25.9785C25.7557 17.5917 24.7844 19.8488 23.2928 21.6618L21.7699 20.0436ZM15.0932 23.7928C17.0379 23.5776 18.8116 22.7949 20.2449 21.614L21.7553 23.219C19.9225 24.7667 17.6206 25.7762 15.0932 26.0039V23.7928ZM8.52427 22.1873C9.80369 23.0474 11.2964 23.6145 12.9064 23.7928V26.0039C10.7151 25.8064 8.69338 25.0212 6.99991 23.8072L8.52427 22.1873ZM4.23259 15.1187C4.47368 17.2969 5.42665 19.2605 6.85367 20.7716L5.34382 22.376C3.49359 20.4585 2.2746 17.9279 2.02148 15.1187H4.23259ZM6.80442 7.33175C5.40479 8.83567 4.47096 10.7789 4.23262 12.9319H2.0215C2.27239 10.1481 3.47177 7.63784 5.29401 5.72673L6.80442 7.33175ZM13.9488 26.0529C13.9658 26.0529 13.9829 26.053 14 26.053C14.0171 26.053 14.0342 26.0529 14.0512 26.0529H13.9488ZM26.0273 14.0975C26.0275 14.0735 26.0276 14.0495 26.0276 14.0254C26.0276 14.0014 26.0275 13.9773 26.0273 13.9533V14.0975Z" fill="#233670"/>
<path fill-rule="evenodd" clip-rule="evenodd" d="M13.9996 21.6789C18.2267 21.6789 21.6535 18.2521 21.6535 14.025C21.6535 9.79786 18.2267 6.37109 13.9996 6.37109C9.77247 6.37109 6.3457 9.79786 6.3457 14.025C6.3457 18.2521 9.77247 21.6789 13.9996 21.6789ZM18 14.5405C18 16.3074 15.7155 16.9505 14.5143 15.8101C14.5002 15.7965 14.4816 15.7877 14.4615 15.7852C14.4414 15.7828 14.421 15.7868 14.4037 15.7966C14.3863 15.8064 14.373 15.8214 14.3659 15.8393C14.3588 15.8571 14.3583 15.8767 14.3645 15.8948C14.6711 16.7442 15.3742 17.4403 16.3568 17.4795C16.3801 17.48 16.4023 17.489 16.4187 17.5046C16.4351 17.5203 16.4443 17.5413 16.4445 17.5632V17.9144C16.4446 17.9256 16.4422 17.9367 16.4377 17.9471C16.4332 17.9575 16.4265 17.967 16.418 17.9749C16.4096 17.9829 16.3996 17.9892 16.3886 17.9935C16.3775 17.9978 16.3657 18 16.3538 18H11.7407C11.7165 18 11.6933 17.991 11.6763 17.9749C11.6592 17.9589 11.6496 17.9371 11.6496 17.9144V17.5632C11.6498 17.5414 11.6591 17.5205 11.6754 17.5049C11.6917 17.4894 11.7138 17.4804 11.737 17.4798C12.6839 17.4359 13.3759 16.7461 13.6628 15.8869C13.6692 15.8686 13.6689 15.8488 13.6618 15.8308C13.6547 15.8127 13.6413 15.7974 13.6237 15.7874C13.6062 15.7774 13.5856 15.7733 13.5652 15.7757C13.5449 15.7781 13.526 15.7869 13.5117 15.8007C12.3256 16.9744 10 16.3165 10 14.5405C10 13.396 10.8546 12.7793 11.8206 12.0823C12.5662 11.5442 13.3783 10.9583 13.9148 10.0448C13.9226 10.0309 13.9344 10.0193 13.9489 10.0114C13.9634 10.0035 13.9799 9.99958 13.9966 10C14.0133 10.0005 14.0296 10.0053 14.0435 10.014C14.0575 10.0227 14.0686 10.0349 14.0756 10.0492C14.561 10.9956 15.4014 11.5889 16.1803 12.1387C17.1365 12.8138 18 13.4234 18 14.5405Z" fill="#E63D26"/>
</svg>
