<svg width="28" height="28" viewBox="0 0 28 28" fill="none" xmlns="http://www.w3.org/2000/svg">
<path fill-rule="evenodd" clip-rule="evenodd" d="M23 2H8.5V4.40123H20.4991V21.5006H23V2Z" fill="#233670"/>
<path fill-rule="evenodd" clip-rule="evenodd" d="M19 6H5V25H19V6ZM16 15.5405C16 17.3074 13.7155 17.9505 12.5143 16.8101C12.5002 16.7965 12.4816 16.7877 12.4615 16.7852C12.4414 16.7828 12.421 16.7868 12.4037 16.7966C12.3863 16.8064 12.373 16.8214 12.3659 16.8393C12.3588 16.8571 12.3583 16.8767 12.3645 16.8948C12.6711 17.7442 13.3742 18.4403 14.3568 18.4795C14.3801 18.48 14.4023 18.489 14.4187 18.5046C14.4351 18.5203 14.4443 18.5413 14.4445 18.5632V18.9144C14.4446 18.9256 14.4422 18.9367 14.4377 18.9471C14.4332 18.9575 14.4265 18.967 14.418 18.9749C14.4096 18.9829 14.3996 18.9892 14.3886 18.9935C14.3775 18.9978 14.3657 19 14.3538 19H9.74067C9.71651 19 9.69334 18.991 9.67626 18.9749C9.65918 18.9589 9.64958 18.9371 9.64958 18.9144V18.5632C9.64983 18.5414 9.65908 18.5205 9.67538 18.5049C9.69169 18.4894 9.71377 18.4804 9.737 18.4798C10.6839 18.4359 11.3759 17.7461 11.6628 16.8869C11.6692 16.8686 11.6689 16.8488 11.6618 16.8308C11.6547 16.8127 11.6413 16.7974 11.6237 16.7874C11.6062 16.7774 11.5856 16.7733 11.5652 16.7757C11.5449 16.7781 11.526 16.7869 11.5117 16.8007C10.3256 17.9744 8 17.3165 8 15.5405C8 14.396 8.85462 13.7793 9.8206 13.0823C10.5662 12.5442 11.3783 11.9583 11.9148 11.0448C11.9226 11.0309 11.9344 11.0193 11.9489 11.0114C11.9634 11.0035 11.9799 10.9996 11.9966 11C12.0133 11.0005 12.0296 11.0053 12.0435 11.014C12.0575 11.0227 12.0686 11.0349 12.0756 11.0492C12.561 11.9956 13.4014 12.5889 14.1803 13.1387C15.1365 13.8138 16 14.4234 16 15.5405ZM16.8004 23.3802C17.198 23.7041 17.9008 23.4953 17.9008 22.9473C17.9008 22.5912 17.6202 22.3969 17.3094 22.1817C17.0562 22.0065 16.7831 21.8173 16.6253 21.5157C16.6231 21.5111 16.6195 21.5072 16.6149 21.5045C16.6104 21.5017 16.6051 21.5002 16.5997 21.5C16.5942 21.4999 16.5889 21.5011 16.5842 21.5036C16.5795 21.5062 16.5756 21.5098 16.5731 21.5143C16.3987 21.8055 16.1348 21.9922 15.8925 22.1637C15.5785 22.3859 15.3008 22.5825 15.3008 22.9473C15.3008 23.4936 16.0047 23.708 16.4004 23.386V24.1H16.8004V23.3802ZM8.6 8.44729C8.6 8.99525 7.89718 9.20412 7.49961 8.88025V9.6H7.09961V8.88604C6.70395 9.208 6 8.99362 6 8.44729C6 8.08246 6.27775 7.8859 6.59169 7.66373C6.83403 7.49223 7.09793 7.30547 7.2723 7.01427C7.27485 7.00984 7.27869 7.00616 7.28339 7.00364C7.28809 7.00112 7.29346 6.99987 7.2989 7.00001C7.30434 7.00016 7.30962 7.0017 7.31415 7.00447C7.31869 7.00723 7.32229 7.01111 7.32456 7.01567C7.48232 7.31734 7.75546 7.50646 8.0086 7.68172C8.31937 7.89689 8.6 8.0912 8.6 8.44729Z" fill="#E63D26"/>
</svg>
