<svg width="28" height="28" viewBox="0 0 28 28" fill="none" xmlns="http://www.w3.org/2000/svg">
<path fill-rule="evenodd" clip-rule="evenodd" d="M9.49854 6.20429C6.80924 7.76064 5 10.6687 5 13.9994C5 18.97 9.02944 22.9994 14 22.9994C18.9706 22.9994 23 18.97 23 13.9994C23 10.1459 20.5782 6.85807 17.1736 5.57489C16.985 4.6777 16.5618 3.86591 15.9618 3.17383C21.1009 4.09898 25 8.59385 25 13.9994C25 20.0745 20.0751 24.9994 14 24.9994C7.92487 24.9994 3 20.0745 3 13.9994C3 9.2503 6.00959 5.20412 10.2256 3.66405C10.1484 4.66615 9.87681 5.48113 9.49854 6.20429Z" fill="#233670"/>
<path d="M19.3809 9.62895C19.8833 12.2446 16.6045 13.1982 16.2079 10.5281V7.4765C16.2608 4.5339 13.9075 2.10899 10.9724 2C11.3426 2.73565 11.7128 3.60753 11.5541 4.5339C10.9724 7.93969 8.51333 8.40287 7.42921 11.6997C5.65761 16.4133 9.62388 21.4811 14.6743 20.9634C20.042 20.7454 23.0563 13.6614 19.3809 9.62895ZM17.0276 17.5576C16.155 20.7182 11.1839 19.8735 11.3162 16.7402C11.1575 14.6968 14.0661 13.7976 12.9556 11.7814C14.1719 11.8359 15.1502 12.8168 15.1502 14.0428V15.2962C15.2824 16.386 16.7367 15.9773 16.4723 14.9147C17.054 15.5959 17.3184 16.5495 17.0276 17.5576Z" fill="#E63D26"/>
</svg>
